<?xml version="1.0" encoding="iso-8859-1"?>
<!-- Generator: Adobe Illustrator 19.0.0, SVG Export Plug-In . SVG Version: 6.00 Build 0)  -->
<svg version="1.1" id="Layer_1" xmlns="http://www.w3.org/2000/svg" xmlns:xlink="http://www.w3.org/1999/xlink" x="0px" y="0px"
	 viewBox="0 0 504.123 504.123" style="enable-background:new 0 0 504.123 504.123;" xml:space="preserve">
<circle style="fill:#00A6F9;" cx="252.062" cy="252.062" r="252.062"/>
<path style="fill:#0093F7;" d="M73.83,73.83c98.43-98.438,258.032-98.438,356.462,0c98.438,98.438,98.438,258.032,0,356.462"/>
<path style="fill:#0086F4;" d="M338.141,154.01c-18.511-16.66-45.899-25.112-81.416-25.112c-23.15,0-44.323,1.646-64.756,5.049
	c-8.137,1.355-14.092,8.397-14.092,16.636v247.178c0,9.311,7.538,16.865,16.865,16.865h32.311c9.326,0,16.865-7.554,16.865-16.865
	v-81.266c41.275,1.441,76.43-9.823,97.642-32.429c15.967-16.447,24.08-38.376,24.08-65.189
	C365.631,192.362,355.785,169.244,338.141,154.01z M299.615,220.357c0,24.269-15.431,36.573-45.859,36.573
	c-3.616,0-6.877-0.087-9.846-0.268v-68.009c3.797-0.252,8.326-0.417,13.556-0.417C299.615,188.227,299.615,212.409,299.615,220.357z
	"/>
<path style="fill:#FFFFFF;" d="M318.448,134.317c-18.511-16.66-45.899-25.112-81.416-25.112c-23.15,0-44.323,1.646-64.756,5.049
	c-8.137,1.355-14.092,8.397-14.092,16.636v247.178c0,9.311,7.538,16.864,16.865,16.864h32.311c9.326,0,16.865-7.554,16.865-16.864
	v-81.266c41.275,1.441,76.43-9.823,97.642-32.429c15.967-16.447,24.08-38.376,24.08-65.189
	C345.939,172.67,336.093,149.551,318.448,134.317z M279.922,200.665c0,24.269-15.431,36.573-45.859,36.573
	c-3.616,0-6.877-0.087-9.846-0.268V168.96c3.797-0.252,8.326-0.417,13.556-0.417C279.922,168.535,279.922,192.717,279.922,200.665z"
	/>
<path style="fill:#CFDDE5;" d="M318.448,134.317c-18.511-16.66-45.899-25.112-81.416-25.112c-23.15,0-44.323,1.646-64.756,5.049
	c-8.137,1.355-14.092,8.397-14.092,16.636v27.294l66.032,66.032v-55.264c3.797-0.252,8.326-0.417,13.556-0.417
	c42.157,0,42.157,24.174,42.157,32.122c0,23.418-14.509,35.572-42.85,36.407l50.003,50.003
	c13.729-5.419,25.624-12.934,34.792-22.701c15.967-16.447,24.08-38.376,24.08-65.189
	C345.939,172.67,336.093,149.551,318.448,134.317z"/>
<g>
</g>
<g>
</g>
<g>
</g>
<g>
</g>
<g>
</g>
<g>
</g>
<g>
</g>
<g>
</g>
<g>
</g>
<g>
</g>
<g>
</g>
<g>
</g>
<g>
</g>
<g>
</g>
<g>
</g>
</svg>
